<svg id="Layer_1" data-name="Layer 1" xmlns="http://www.w3.org/2000/svg" xmlns:xlink="http://www.w3.org/1999/xlink" viewBox="0 0 512.26 167.31">
  <defs>
    <style>
      .cls-1 {
        fill: none;
      }

      .cls-2 {
        fill: #b2b2b2;
      }

      .cls-3 {
        clip-path: url(#clip-path);
      }

      .cls-4 {
        fill: url(#linear-gradient);
      }

      .cls-5 {
        fill: url(#linear-gradient-2);
      }

      .cls-6 {
        fill: url(#linear-gradient-3);
      }

      .cls-7 {
        fill: url(#linear-gradient-4);
      }

      .cls-8 {
        fill: #f9f9f9;
      }

      .cls-9 {
        fill: #fcfcfd;
      }
    </style>
    <clipPath id="clip-path">
      <path class="cls-1" d="M111.62,73.21,88.56,59.89,44.07,34.21c-2.47-1.43-4.93-.57-4.93,2.41V141.27c0,2.24,1.76,3.2,3.9,2L88.56,117l23.06-13.31,22.17-12.8c2.6-1.5,2.35-3.56.15-4.74S111.62,73.21,111.62,73.21Z"/>
    </clipPath>
    <linearGradient id="linear-gradient" x1="67.71" y1="31.77" x2="67.71" y2="145.07" gradientUnits="userSpaceOnUse">
      <stop offset="0" stop-color="#2079b0"/>
      <stop offset="0.32" stop-color="#4a98b5"/>
      <stop offset="0.78" stop-color="#81bfbc"/>
      <stop offset="1" stop-color="#97cfbf"/>
    </linearGradient>
    <linearGradient id="linear-gradient-2" x1="39.14" y1="59.89" x2="111.62" y2="59.89" gradientUnits="userSpaceOnUse">
      <stop offset="0" stop-color="#5abcab"/>
      <stop offset="1" stop-color="#e6e99a"/>
    </linearGradient>
    <linearGradient id="linear-gradient-3" x1="75.38" y1="88.42" x2="75.38" y2="145.49" gradientUnits="userSpaceOnUse">
      <stop offset="0" stop-color="#e53432"/>
      <stop offset="0.18" stop-color="#d43745"/>
      <stop offset="0.73" stop-color="#a33e7c"/>
      <stop offset="1" stop-color="#904192"/>
    </linearGradient>
    <linearGradient id="linear-gradient-4" x1="117.12" y1="73.21" x2="117.12" y2="103.64" gradientUnits="userSpaceOnUse">
      <stop offset="0" stop-color="#f18779"/>
      <stop offset="0.64" stop-color="#f9b574"/>
      <stop offset="1" stop-color="#fdcb72"/>
    </linearGradient>
  </defs>
  <g>
    <path class="cls-2" d="M512.26,144.7a22.61,22.61,0,0,1-22.61,22.61H23.39A22.61,22.61,0,0,1,.78,144.7V22.61A22.61,22.61,0,0,1,23.39,0H489.65a22.61,22.61,0,0,1,22.61,22.61Z"/>
    <g id="PLAY">
      <g class="cls-3">
        <polygon class="cls-4" points="39.14 31.77 39.14 88.42 39.14 145.07 96.27 88.42 39.14 31.77"/>
        <polygon class="cls-5" points="111.62 73.21 88.56 59.89 39.14 31.36 39.14 31.77 96.27 88.42 111.62 73.21"/>
        <polygon class="cls-6" points="39.14 145.07 39.14 145.49 88.56 116.95 111.62 103.64 96.27 88.42 39.14 145.07"/>
        <polygon class="cls-7" points="111.62 73.21 96.27 88.42 111.62 103.64 137.97 88.42 111.62 73.21"/>
      </g>
    </g>
    <g>
      <path class="cls-8" d="M398.83,110.57a14.1,14.1,0,0,1-5.87-1.19,11,11,0,0,1-4.47-3.65h-.36a44.38,44.38,0,0,1,.36,5.47v13.56h-5V77h4.06l.69,4.51h.24A11.62,11.62,0,0,1,393,77.62a13.67,13.67,0,0,1,5.86-1.2q6.56,0,10.12,4.48t3.56,12.56q0,8.13-3.62,12.62A12.21,12.21,0,0,1,398.83,110.57Zm-.72-29.91q-5.06,0-7.3,2.79c-1.51,1.87-2.28,4.83-2.32,8.9v1.11q0,7,2.32,9.94c1.54,2,4,3,7.42,3a7.72,7.72,0,0,0,6.69-3.45c1.62-2.31,2.42-5.48,2.42-9.54s-.8-7.26-2.42-9.45A7.94,7.94,0,0,0,398.11,80.66Z"/>
      <path class="cls-8" d="M424.07,110h-5V63.19h5Z"/>
      <path class="cls-8" d="M452.76,110l-1-4.69h-.24a13.78,13.78,0,0,1-4.92,4.19,14.82,14.82,0,0,1-6.12,1.1,11,11,0,0,1-7.68-2.52,9.24,9.24,0,0,1-2.78-7.19q0-10,16-10.46l5.59-.18v-2q0-3.87-1.67-5.72c-1.11-1.24-2.89-1.85-5.34-1.85a21.81,21.81,0,0,0-9.32,2.52l-1.53-3.82a23.34,23.34,0,0,1,5.34-2.07,23.1,23.1,0,0,1,5.81-.75q5.89,0,8.74,2.61c1.89,1.75,2.84,4.54,2.84,8.39V110Zm-11.27-3.52a10.16,10.16,0,0,0,7.32-2.55,9.47,9.47,0,0,0,2.66-7.16v-3l-5,.21c-4,.14-6.83.75-8.59,1.85a5.58,5.58,0,0,0-2.63,5.09A5.14,5.14,0,0,0,436.9,105,6.81,6.81,0,0,0,441.49,106.45Z"/>
      <path class="cls-8" d="M459.36,77h5.35l7.21,18.79a72.31,72.31,0,0,1,2.95,9.29h.24q.39-1.53,1.64-5.25T484.91,77h5.35L476.1,114.54q-2.1,5.56-4.92,7.89a10.39,10.39,0,0,1-6.89,2.33,20.21,20.21,0,0,1-4.52-.51v-4a17.49,17.49,0,0,0,3.7.37q5.14,0,7.34-5.78l1.83-4.69Z"/>
    </g>
    <g>
      <path class="cls-8" d="M306.38,80.08a11.62,11.62,0,0,1,4.9,9.31c0,5.09-2.9,7.51-5.79,9.78-.9.9-1.93,1.87-1.93,3.38a3.76,3.76,0,0,0,1.79,3l2.48,1.93c3,2.55,5.79,4.9,5.79,9.65,0,6.48-6.27,13-18.13,13-10,0-14.81-4.76-14.81-9.86,0-2.48,1.23-6,5.3-8.41,4.27-2.62,10.07-3,13.17-3.17-1-1.24-2.07-2.55-2.07-4.68a6.12,6.12,0,0,1,.69-2.69c-.76.07-1.52.13-2.21.13-7.3,0-11.44-5.44-11.44-10.81a12.41,12.41,0,0,1,4.41-9.24c3.93-3.24,8.62-3.79,12.34-3.79h14.2l-4.42,2.48Zm-4.89,30.6a11,11,0,0,0-1.58-.07,27.47,27.47,0,0,0-7.24,1.11c-1.52.55-5.93,2.2-5.93,7.1s4.76,8.41,12.13,8.41c6.62,0,10.13-3.18,10.13-7.45C309,116.26,306.73,114.41,301.49,110.68Zm2-13.09a7,7,0,0,0,1.72-5c0-5-3-12.69-8.68-12.69a6.45,6.45,0,0,0-4.83,2.28,8,8,0,0,0-1.52,5.1c0,4.62,2.69,12.27,8.62,12.27A7.07,7.07,0,0,0,303.49,97.59Z"/>
      <path class="cls-8" d="M263,109.58a16.24,16.24,0,0,1-16.79-16.24c0-9,7.36-16.72,17.82-16.72a16.09,16.09,0,0,1,16.44,16.24C280.47,101,274.21,109.58,263,109.58Zm8.59-5.57a12.43,12.43,0,0,0,2.07-7.64c0-6.06-2.89-17.62-11.42-17.62a9.57,9.57,0,0,0-6.19,2.35c-2.68,2.4-3.17,5.43-3.17,8.39,0,6.81,3.37,18,11.7,18A8.77,8.77,0,0,0,271.59,104Z"/>
      <path class="cls-8" d="M225.7,109.58a16.24,16.24,0,0,1-16.79-16.24c0-9,7.36-16.72,17.82-16.72a16.09,16.09,0,0,1,16.45,16.24C243.18,101,236.92,109.58,225.7,109.58Zm8.6-5.57a12.5,12.5,0,0,0,2.07-7.64c0-6.06-2.89-17.62-11.43-17.62a9.57,9.57,0,0,0-6.19,2.35c-2.68,2.4-3.16,5.43-3.16,8.39,0,6.81,3.37,18,11.7,18A8.78,8.78,0,0,0,234.3,104Z"/>
      <path class="cls-8" d="M203.65,108.5l-9.89,2.28A72.58,72.58,0,0,1,182.35,112c-19.1,0-26.36-14-26.36-25,0-13.41,10.31-25.86,27.95-25.86a39.83,39.83,0,0,1,10.58,1.45,26.84,26.84,0,0,1,9.13,4.29l-5.74,5.46-2.42.55L197.22,70c-2.35-2.28-6.64-6.49-14.8-6.49-10.94,0-19.17,8.3-19.17,20.4,0,13,9.41,25.25,24.49,25.25a20.67,20.67,0,0,0,8.79-1.73V96.33l-10.45.55,5.53-3h14.67l-1.8,1.73a1.66,1.66,0,0,0-.69,1.11c-.07.62-.14,2.63-.14,3.32Z"/>
      <path class="cls-8" d="M328.25,106.51c-2.28-.21-2.76-.62-2.76-3.32V64l0-.44c.28-2.42,1-2.84,3.12-4.09h-9.89l-5.2,2.5h5.29v42.71c0,1.38-.27,1.59-1.87,3.67h12.25l2.56-1.52C330.6,106.72,329.43,106.65,328.25,106.51Z"/>
      <path class="cls-8" d="M356.4,107.15c-.75.41-1.51.89-2.26,1.23a16,16,0,0,1-6.67,1.31,14.67,14.67,0,0,1-9.14-2.68c-4.88-3.44-7-9.35-7-14.5,0-10.65,8.66-15.87,15.74-15.87a13.34,13.34,0,0,1,7.08,1.93,11.37,11.37,0,0,1,4.8,6.79L342.8,91.89l-5.29.42c1.71,8.72,7.62,13.8,14.15,13.8a17.7,17.7,0,0,0,8.38-2.4Zm-6.46-20.48c1.31-.48,2-.89,2-1.85,0-2.75-3.09-5.91-6.8-5.91-2.75,0-7.9,2.13-7.9,9.55,0,1.17.14,2.4.21,3.64Z"/>
      <g>
        <path class="cls-8" d="M363,77.11v4.54h-.55V77.11H361v-.47h3.55v.47Z"/>
        <path class="cls-8" d="M369.21,81.65V77.07h0l-1.39,4.58h-.43L366,77.07h0v4.58h-.5v-5h.86l1.27,4h0l1.26-4h.87v5Z"/>
      </g>
    </g>
    <g>
      <path class="cls-9" d="M169.73,47.58h-3.44a21.78,21.78,0,0,0-1-4h-5a21,21,0,0,0-1,4h-3.23a71.52,71.52,0,0,1,2.51-6.88,53.07,53.07,0,0,0,2.5-7.11h4.07a58,58,0,0,0,2.27,7A61.68,61.68,0,0,1,169.73,47.58Zm-5-6.07a59.7,59.7,0,0,1-1.84-6h-.17c0,.28-.64,2.28-1.9,6Z"/>
      <path class="cls-9" d="M183.58,47.58h-2.65q0-.45-3-4.66c-2.06-3-3.23-5-3.52-6.07h-.17a37.72,37.72,0,0,1,.27,4.26c0,1.77,0,3.92.15,6.47h-2.65q.16-3.33.17-7.32c0-2.61-.06-4.84-.17-6.67h3.19q0,.57,2.66,4.54a27,27,0,0,1,3.24,5.73h.16a41,41,0,0,1-.25-4.3q0-2.91-.15-6h2.68q-.15,2.67-.15,6.67T183.58,47.58Z"/>
      <path class="cls-9" d="M199.15,40.1a8,8,0,0,1-2,5.33,6.83,6.83,0,0,1-5.48,2.27c-1.06,0-2.52,0-4.39-.12.1-2.17.14-4.61.14-7.32s0-4.83-.14-6.67h1.88l1.38,0,1.19,0c2.59,0,4.46.65,5.63,1.94A6.69,6.69,0,0,1,199.15,40.1Zm-2.93.46A5.13,5.13,0,0,0,195,37.09a4.52,4.52,0,0,0-3.67-1.42,12.72,12.72,0,0,0-1.27.1c.07,1.43.11,2.93.11,4.49,0,1.71,0,3.41.11,5.09a7.28,7.28,0,0,0,1.39.14,4.09,4.09,0,0,0,3.43-1.43A5.55,5.55,0,0,0,196.22,40.56Z"/>
      <path class="cls-9" d="M213.51,47.58h-3.18a21.41,21.41,0,0,0-1.91-4.7,2.53,2.53,0,0,0-2.15-.89h-1.2c0,1.84,0,3.7.1,5.58h-3c.1-2.17.14-4.61.14-7.32s0-4.83-.14-6.67H204l1.35,0c.68,0,1.32,0,1.9,0,3.28,0,4.93,1.13,4.93,3.38a3.78,3.78,0,0,1-2.82,3.72v.17a3.3,3.3,0,0,1,1.9,1.69A36.8,36.8,0,0,1,213.51,47.58Zm-4-9.89c0-1.42-.92-2.14-2.75-2.14a8.58,8.58,0,0,0-1.78.16c.07,1.11.11,2.55.11,4.33l1,0C208.34,40.07,209.48,39.28,209.48,37.69Z"/>
      <path class="cls-9" d="M228.91,40.32a7.73,7.73,0,0,1-2,5.47,6.56,6.56,0,0,1-5,2.17,6.32,6.32,0,0,1-4.75-2,7,7,0,0,1-1.91-5.07,7.68,7.68,0,0,1,2-5.46,6.55,6.55,0,0,1,5-2.17,6.31,6.31,0,0,1,4.74,2A7,7,0,0,1,228.91,40.32Zm-3,.32A5.56,5.56,0,0,0,224.79,37,3.53,3.53,0,0,0,222,35.6a3.29,3.29,0,0,0-2.67,1.4,5.64,5.64,0,0,0-1.09,3.56,5.55,5.55,0,0,0,1.15,3.64,3.54,3.54,0,0,0,2.83,1.4,3.26,3.26,0,0,0,2.66-1.41A5.59,5.59,0,0,0,225.94,40.64Z"/>
      <path class="cls-9" d="M235,47.58h-3q.13-3.33.14-7.32c0-2.61-.05-4.84-.14-6.67h3c-.09,1.8-.14,4-.14,6.67S234.89,45.4,235,47.58Z"/>
      <path class="cls-9" d="M250.55,40.1a7.91,7.91,0,0,1-2,5.33,6.81,6.81,0,0,1-5.47,2.27c-1.06,0-2.53,0-4.39-.12.1-2.17.14-4.61.14-7.32s0-4.83-.14-6.67h1.88l1.38,0,1.19,0q3.88,0,5.62,1.94A6.65,6.65,0,0,1,250.55,40.1Zm-2.93.46a5.13,5.13,0,0,0-1.21-3.47,4.52,4.52,0,0,0-3.67-1.42,12.72,12.72,0,0,0-1.27.1c.07,1.43.11,2.93.11,4.49,0,1.71,0,3.41.11,5.09a7.28,7.28,0,0,0,1.39.14,4.1,4.1,0,0,0,3.43-1.43A5.55,5.55,0,0,0,247.62,40.56Z"/>
      <path class="cls-9" d="M271.21,47.58h-3.44a22.73,22.73,0,0,0-1-4h-5a20.2,20.2,0,0,0-1,4h-3.24c0-.28.84-2.58,2.51-6.88a54.08,54.08,0,0,0,2.51-7.11h4.06a60.25,60.25,0,0,0,2.27,7A60.68,60.68,0,0,1,271.21,47.58Zm-5-6.07c-1.22-3.7-1.84-5.7-1.84-6h-.17a62.1,62.1,0,0,1-1.9,6Z"/>
      <path class="cls-9" d="M283.74,37.25A4.18,4.18,0,0,1,281.83,41a8.45,8.45,0,0,1-4.68,1.23l-.72,0c0,1.34,0,3.12.12,5.33h-3q.14-3.11.14-7.32,0-3.87-.14-6.67h1.87l1.53,0c.75,0,1.4,0,1.95,0a6.13,6.13,0,0,1,3.45.93A3.11,3.11,0,0,1,283.74,37.25Zm-2.78.59c0-1.53-1-2.3-3-2.3a8.48,8.48,0,0,0-1.61.17q.12,2,.12,4.59a5.92,5.92,0,0,0,.62,0C279.66,40.32,281,39.5,281,37.84Z"/>
      <path class="cls-9" d="M296.62,37.25A4.18,4.18,0,0,1,294.71,41,8.45,8.45,0,0,1,290,42.27l-.72,0c0,1.34,0,3.12.12,5.33h-3c.1-2.07.14-4.51.14-7.32,0-2.58,0-4.8-.14-6.67h1.87l1.53,0c.75,0,1.4,0,1.95,0a6.13,6.13,0,0,1,3.45.93A3.11,3.11,0,0,1,296.62,37.25Zm-2.77.59c0-1.53-1-2.3-3.05-2.3a8.4,8.4,0,0,0-1.61.17c.07,1.35.11,2.88.11,4.59a6,6,0,0,0,.63,0C292.54,40.32,293.85,39.5,293.85,37.84Z"/>
      <path class="cls-9" d="M317.68,40.32a7.69,7.69,0,0,1-2,5.47,6.52,6.52,0,0,1-5,2.17,6.32,6.32,0,0,1-4.75-2A7,7,0,0,1,304,40.9a7.68,7.68,0,0,1,2-5.46,6.54,6.54,0,0,1,5-2.17,6.33,6.33,0,0,1,4.75,2A7,7,0,0,1,317.68,40.32Zm-3,.32A5.56,5.56,0,0,0,313.57,37a3.54,3.54,0,0,0-2.84-1.39,3.29,3.29,0,0,0-2.66,1.4,5.64,5.64,0,0,0-1.1,3.56,5.55,5.55,0,0,0,1.16,3.64A3.54,3.54,0,0,0,311,45.6a3.26,3.26,0,0,0,2.66-1.41A5.65,5.65,0,0,0,314.72,40.64Z"/>
      <path class="cls-9" d="M332.24,47.58h-2.65q0-.45-2.95-4.66c-2.07-3-3.24-5-3.53-6.07h-.17a37.72,37.72,0,0,1,.27,4.26c0,1.77.05,3.92.15,6.47h-2.64q.16-3.33.16-7.32c0-2.61-.05-4.84-.16-6.67h3.19q0,.57,2.65,4.54a26.79,26.79,0,0,1,3.25,5.73H330a41.19,41.19,0,0,1-.26-4.3q0-2.91-.15-6h2.68q-.15,2.67-.15,6.67T332.24,47.58Z"/>
    </g>
  </g>
</svg>
